<svg width="322" height="68" viewBox="0 0 322 68" fill="none" xmlns="http://www.w3.org/2000/svg">
<path d="M91.448 29.9128C91.672 30.2648 91.864 30.7448 92.024 31.3528C92.216 31.9288 92.312 32.5368 92.312 33.1768C92.312 34.4248 92.04 35.3208 91.496 35.8648C90.984 36.3768 90.28 36.6328 89.384 36.6328H79.304V42.0568H89.816C90.072 42.4088 90.28 42.8728 90.44 43.4488C90.632 44.0248 90.728 44.6328 90.728 45.2728C90.728 46.4888 90.456 47.3688 89.912 47.9128C89.4 48.4248 88.696 48.6808 87.8 48.6808H79.4V58.8088C79.048 58.9048 78.488 59.0008 77.72 59.0968C76.984 59.1928 76.248 59.2408 75.512 59.2408C74.776 59.2408 74.12 59.1768 73.544 59.0488C73 58.9528 72.536 58.7608 72.152 58.4728C71.768 58.1848 71.48 57.7848 71.288 57.2728C71.096 56.7608 71 56.0888 71 55.2568V34.3768C71 33.0008 71.4 31.9128 72.2 31.1128C73 30.3128 74.088 29.9128 75.464 29.9128H91.448Z" fill="white"/>
<path d="M118.942 47.3368C118.942 49.3208 118.638 51.0968 118.03 52.6648C117.422 54.2008 116.558 55.4968 115.438 56.5528C114.35 57.6088 113.038 58.4088 111.502 58.9528C109.966 59.4968 108.254 59.7688 106.366 59.7688C104.478 59.7688 102.766 59.4808 101.23 58.9048C99.6939 58.3288 98.3659 57.5128 97.2459 56.4568C96.1579 55.3688 95.3099 54.0568 94.7019 52.5208C94.0939 50.9848 93.7899 49.2568 93.7899 47.3368C93.7899 45.4488 94.0939 43.7368 94.7019 42.2008C95.3099 40.6648 96.1579 39.3688 97.2459 38.3128C98.3659 37.2248 99.6939 36.3928 101.23 35.8168C102.766 35.2408 104.478 34.9528 106.366 34.9528C108.254 34.9528 109.966 35.2568 111.502 35.8648C113.038 36.4408 114.35 37.2728 115.438 38.3608C116.558 39.4168 117.422 40.7128 118.03 42.2488C118.638 43.7848 118.942 45.4808 118.942 47.3368ZM102.142 47.3368C102.142 49.2888 102.51 50.7928 103.246 51.8488C104.014 52.8728 105.07 53.3848 106.414 53.3848C107.758 53.3848 108.782 52.8568 109.486 51.8008C110.222 50.7448 110.59 49.2568 110.59 47.3368C110.59 45.4168 110.222 43.9448 109.486 42.9208C108.75 41.8648 107.71 41.3368 106.366 41.3368C105.022 41.3368 103.982 41.8648 103.246 42.9208C102.51 43.9448 102.142 45.4168 102.142 47.3368Z" fill="white"/>
<path d="M147.067 47.3368C147.067 49.3208 146.763 51.0968 146.155 52.6648C145.547 54.2008 144.683 55.4968 143.563 56.5528C142.475 57.6088 141.163 58.4088 139.627 58.9528C138.091 59.4968 136.379 59.7688 134.491 59.7688C132.603 59.7688 130.891 59.4808 129.355 58.9048C127.819 58.3288 126.491 57.5128 125.371 56.4568C124.283 55.3688 123.435 54.0568 122.827 52.5208C122.219 50.9848 121.915 49.2568 121.915 47.3368C121.915 45.4488 122.219 43.7368 122.827 42.2008C123.435 40.6648 124.283 39.3688 125.371 38.3128C126.491 37.2248 127.819 36.3928 129.355 35.8168C130.891 35.2408 132.603 34.9528 134.491 34.9528C136.379 34.9528 138.091 35.2568 139.627 35.8648C141.163 36.4408 142.475 37.2728 143.563 38.3608C144.683 39.4168 145.547 40.7128 146.155 42.2488C146.763 43.7848 147.067 45.4808 147.067 47.3368ZM130.267 47.3368C130.267 49.2888 130.635 50.7928 131.371 51.8488C132.139 52.8728 133.195 53.3848 134.539 53.3848C135.883 53.3848 136.907 52.8568 137.611 51.8008C138.347 50.7448 138.715 49.2568 138.715 47.3368C138.715 45.4168 138.347 43.9448 137.611 42.9208C136.875 41.8648 135.835 41.3368 134.491 41.3368C133.147 41.3368 132.107 41.8648 131.371 42.9208C130.635 43.9448 130.267 45.4168 130.267 47.3368Z" fill="white"/>
<path d="M150.04 47.3368C150.04 45.2248 150.36 43.4008 151 41.8648C151.64 40.2968 152.52 39.0008 153.64 37.9768C154.792 36.9528 156.12 36.2008 157.624 35.7208C159.16 35.2088 160.808 34.9528 162.568 34.9528C163.208 34.9528 163.832 35.0168 164.44 35.1448C165.048 35.2408 165.544 35.3688 165.928 35.5288V27.7528C166.248 27.6568 166.76 27.5608 167.464 27.4648C168.168 27.3368 168.888 27.2728 169.624 27.2728C170.328 27.2728 170.952 27.3208 171.496 27.4168C172.072 27.5128 172.552 27.7048 172.936 27.9928C173.32 28.2808 173.608 28.6808 173.8 29.1928C173.992 29.6728 174.088 30.3128 174.088 31.1128V53.8648C174.088 55.3688 173.384 56.5688 171.976 57.4648C171.048 58.0728 169.848 58.6008 168.376 59.0488C166.904 59.5288 165.208 59.7688 163.288 59.7688C161.208 59.7688 159.336 59.4808 157.672 58.9048C156.04 58.3288 154.648 57.4968 153.496 56.4088C152.376 55.3208 151.512 54.0248 150.904 52.5208C150.328 50.9848 150.04 49.2568 150.04 47.3368ZM163.672 41.3368C161.944 41.3368 160.616 41.8328 159.688 42.8248C158.76 43.8168 158.296 45.3208 158.296 47.3368C158.296 49.3208 158.728 50.8248 159.592 51.8488C160.456 52.8408 161.704 53.3368 163.336 53.3368C163.912 53.3368 164.424 53.2568 164.872 53.0968C165.352 52.9048 165.72 52.6968 165.976 52.4728V41.9128C165.336 41.5288 164.568 41.3368 163.672 41.3368Z" fill="white"/>
<path d="M188.149 49.5928V58.8088C187.797 58.9048 187.237 59.0008 186.469 59.0968C185.733 59.1928 184.997 59.2408 184.261 59.2408C183.525 59.2408 182.869 59.1768 182.293 59.0488C181.749 58.9528 181.285 58.7608 180.901 58.4728C180.549 58.1848 180.277 57.7848 180.085 57.2728C179.893 56.7608 179.797 56.0888 179.797 55.2568V32.6488C179.797 31.9768 179.973 31.4648 180.325 31.1128C180.709 30.7288 181.221 30.4248 181.861 30.2008C182.949 29.8168 184.213 29.5448 185.653 29.3848C187.093 29.1928 188.629 29.0968 190.261 29.0968C194.677 29.0968 198.005 30.0248 200.245 31.8808C202.485 33.7368 203.605 36.2488 203.605 39.4168C203.605 41.4008 203.093 43.0968 202.069 44.5048C201.045 45.9128 199.829 47.0008 198.421 47.7688C199.573 49.3368 200.709 50.8088 201.829 52.1848C202.949 53.5608 203.829 54.8088 204.469 55.9288C204.149 57.0488 203.557 57.9128 202.693 58.5208C201.861 59.0968 200.917 59.3848 199.861 59.3848C199.157 59.3848 198.549 59.3048 198.037 59.1448C197.525 58.9848 197.077 58.7608 196.693 58.4728C196.309 58.1848 195.957 57.8328 195.637 57.4168C195.317 57.0008 195.013 56.5528 194.725 56.0728L190.693 49.5928H188.149ZM191.173 43.2088C192.389 43.2088 193.349 42.9048 194.053 42.2968C194.757 41.6568 195.109 40.7288 195.109 39.5128C195.109 38.2968 194.709 37.3848 193.909 36.7768C193.141 36.1368 191.909 35.8168 190.213 35.8168C189.733 35.8168 189.349 35.8328 189.061 35.8648C188.773 35.8968 188.453 35.9448 188.101 36.0088V43.2088H191.173Z" fill="white"/>
<path d="M220.056 59.7688C218.168 59.7688 216.408 59.5128 214.776 59.0008C213.176 58.4568 211.768 57.6568 210.552 56.6008C209.368 55.5448 208.424 54.2168 207.72 52.6168C207.048 51.0168 206.712 49.1448 206.712 47.0008C206.712 44.8888 207.048 43.0808 207.72 41.5768C208.424 40.0408 209.336 38.7928 210.456 37.8328C211.576 36.8408 212.856 36.1208 214.296 35.6728C215.736 35.1928 217.208 34.9528 218.712 34.9528C220.408 34.9528 221.944 35.2088 223.32 35.7208C224.728 36.2328 225.928 36.9368 226.92 37.8328C227.944 38.7288 228.728 39.8008 229.272 41.0488C229.848 42.2968 230.136 43.6568 230.136 45.1288C230.136 46.2168 229.832 47.0488 229.224 47.6248C228.616 48.2008 227.768 48.5688 226.68 48.7288L214.824 50.5048C215.176 51.5608 215.896 52.3608 216.984 52.9048C218.072 53.4168 219.32 53.6728 220.728 53.6728C222.04 53.6728 223.272 53.5128 224.424 53.1928C225.608 52.8408 226.568 52.4408 227.304 51.9928C227.816 52.3128 228.248 52.7608 228.6 53.3368C228.952 53.9128 229.128 54.5208 229.128 55.1608C229.128 56.6008 228.456 57.6728 227.112 58.3768C226.088 58.9208 224.936 59.2888 223.656 59.4808C222.376 59.6728 221.176 59.7688 220.056 59.7688ZM218.712 40.9048C217.944 40.9048 217.272 41.0328 216.696 41.2888C216.152 41.5448 215.704 41.8808 215.352 42.2968C215 42.6808 214.728 43.1288 214.536 43.6408C214.376 44.1208 214.28 44.6168 214.248 45.1288L222.456 43.7848C222.36 43.1448 222.008 42.5048 221.4 41.8648C220.792 41.2248 219.896 40.9048 218.712 40.9048Z" fill="white"/>
<path d="M247.215 41.3848C246.416 41.3848 245.647 41.5128 244.911 41.7688C244.207 42.0248 243.584 42.4088 243.04 42.9208C242.528 43.4008 242.112 44.0088 241.792 44.7448C241.472 45.4808 241.311 46.3448 241.311 47.3368C241.311 49.3208 241.872 50.8088 242.992 51.8008C244.144 52.7928 245.535 53.2888 247.167 53.2888C248.127 53.2888 248.959 53.1768 249.663 52.9528C250.367 52.7288 250.992 52.4888 251.536 52.2328C252.176 52.6808 252.655 53.1768 252.975 53.7208C253.295 54.2328 253.456 54.8568 253.456 55.5928C253.456 56.9048 252.831 57.9288 251.583 58.6648C250.335 59.3688 248.608 59.7208 246.4 59.7208C244.384 59.7208 242.56 59.4328 240.928 58.8568C239.296 58.2488 237.888 57.4168 236.704 56.3608C235.552 55.2728 234.656 53.9768 234.016 52.4728C233.376 50.9688 233.055 49.3048 233.055 47.4808C233.055 45.3688 233.392 43.5288 234.064 41.9608C234.768 40.3608 235.712 39.0488 236.896 38.0248C238.08 37.0008 239.439 36.2328 240.975 35.7208C242.543 35.2088 244.191 34.9528 245.919 34.9528C248.223 34.9528 249.999 35.3688 251.247 36.2008C252.495 37.0328 253.12 38.1048 253.12 39.4168C253.12 40.0248 252.976 40.6008 252.688 41.1448C252.399 41.6568 252.064 42.1048 251.68 42.4888C251.136 42.2328 250.48 41.9928 249.712 41.7688C248.944 41.5128 248.111 41.3848 247.215 41.3848Z" fill="white"/>
<path d="M257.356 29.1928C257.356 27.9768 257.756 26.9528 258.556 26.1208C259.388 25.2888 260.476 24.8728 261.82 24.8728C263.164 24.8728 264.236 25.2888 265.036 26.1208C265.868 26.9528 266.284 27.9768 266.284 29.1928C266.284 30.4088 265.868 31.4328 265.036 32.2648C264.236 33.0968 263.164 33.5128 261.82 33.5128C260.476 33.5128 259.388 33.0968 258.556 32.2648C257.756 31.4328 257.356 30.4088 257.356 29.1928ZM265.9 58.9528C265.548 59.0168 265.02 59.0968 264.316 59.1928C263.644 59.3208 262.956 59.3848 262.252 59.3848C261.548 59.3848 260.908 59.3368 260.332 59.2408C259.788 59.1448 259.324 58.9528 258.94 58.6648C258.556 58.3768 258.252 57.9928 258.028 57.5128C257.836 57.0008 257.74 56.3448 257.74 55.5448V36.0088C258.092 35.9448 258.604 35.8648 259.276 35.7688C259.98 35.6408 260.684 35.5768 261.388 35.5768C262.092 35.5768 262.716 35.6248 263.26 35.7208C263.836 35.8168 264.316 36.0088 264.7 36.2968C265.084 36.5848 265.372 36.9848 265.564 37.4968C265.788 37.9768 265.9 38.6168 265.9 39.4168V58.9528Z" fill="white"/>
<path d="M281.799 34.9528C283.719 34.9528 285.495 35.2088 287.127 35.7208C288.791 36.2008 290.215 36.9528 291.399 37.9768C292.583 39.0008 293.511 40.2968 294.183 41.8648C294.855 43.4008 295.191 45.2408 295.191 47.3848C295.191 49.4328 294.903 51.2248 294.327 52.7608C293.751 54.2968 292.935 55.5928 291.879 56.6488C290.823 57.6728 289.543 58.4408 288.039 58.9528C286.567 59.4648 284.919 59.7208 283.095 59.7208C281.719 59.7208 280.439 59.5128 279.255 59.0968V67.0648C278.935 67.1608 278.423 67.2568 277.719 67.3528C277.015 67.4808 276.295 67.5448 275.559 67.5448C274.855 67.5448 274.215 67.4968 273.639 67.4008C273.095 67.3048 272.631 67.1128 272.247 66.8248C271.863 66.5368 271.575 66.1368 271.383 65.6248C271.191 65.1448 271.095 64.5048 271.095 63.7048V40.6648C271.095 39.8008 271.271 39.0968 271.623 38.5528C272.007 38.0088 272.519 37.5128 273.159 37.0648C274.151 36.4248 275.383 35.9128 276.855 35.5288C278.327 35.1448 279.975 34.9528 281.799 34.9528ZM281.895 53.2888C285.191 53.2888 286.839 51.3208 286.839 47.3848C286.839 45.3368 286.423 43.8168 285.591 42.8248C284.791 41.8328 283.623 41.3368 282.087 41.3368C281.479 41.3368 280.935 41.4168 280.455 41.5768C279.975 41.7048 279.559 41.8648 279.207 42.0568V52.6168C279.591 52.8088 280.007 52.9688 280.455 53.0968C280.903 53.2248 281.383 53.2888 281.895 53.2888Z" fill="white"/>
<path d="M311.509 59.7688C309.621 59.7688 307.861 59.5128 306.229 59.0008C304.629 58.4568 303.221 57.6568 302.005 56.6008C300.821 55.5448 299.877 54.2168 299.173 52.6168C298.501 51.0168 298.165 49.1448 298.165 47.0008C298.165 44.8888 298.501 43.0808 299.173 41.5768C299.877 40.0408 300.789 38.7928 301.909 37.8328C303.029 36.8408 304.309 36.1208 305.749 35.6728C307.189 35.1928 308.661 34.9528 310.165 34.9528C311.861 34.9528 313.397 35.2088 314.773 35.7208C316.181 36.2328 317.381 36.9368 318.373 37.8328C319.397 38.7288 320.181 39.8008 320.725 41.0488C321.301 42.2968 321.589 43.6568 321.589 45.1288C321.589 46.2168 321.285 47.0488 320.677 47.6248C320.069 48.2008 319.221 48.5688 318.133 48.7288L306.277 50.5048C306.629 51.5608 307.349 52.3608 308.437 52.9048C309.525 53.4168 310.773 53.6728 312.181 53.6728C313.493 53.6728 314.725 53.5128 315.877 53.1928C317.061 52.8408 318.021 52.4408 318.757 51.9928C319.269 52.3128 319.701 52.7608 320.053 53.3368C320.405 53.9128 320.581 54.5208 320.581 55.1608C320.581 56.6008 319.909 57.6728 318.565 58.3768C317.541 58.9208 316.389 59.2888 315.109 59.4808C313.829 59.6728 312.629 59.7688 311.509 59.7688ZM310.165 40.9048C309.397 40.9048 308.725 41.0328 308.149 41.2888C307.605 41.5448 307.157 41.8808 306.805 42.2968C306.453 42.6808 306.181 43.1288 305.989 43.6408C305.829 44.1208 305.733 44.6168 305.701 45.1288L313.909 43.7848C313.813 43.1448 313.461 42.5048 312.853 41.8648C312.245 41.2248 311.349 40.9048 310.165 40.9048Z" fill="white"/>
<path d="M29.6734 2.38301C29.2835 3.26023 29.4785 4.52732 30.0633 5.2096C30.843 6.08681 29.6734 6.67162 25.1899 7.54884C19.2443 8.71846 13.4937 12.4223 13.4937 15.0539C13.4937 16.2235 16.8076 16.4185 32.5 16.4185C48.2899 16.4185 51.5063 16.2235 51.5063 15.0539C51.5063 11.8374 45.7557 8.42605 38.0557 7.15896C34.8392 6.67162 34.1569 6.18428 34.9367 5.2096C36.3987 3.3577 35.0342 0.82352 32.5 0.82352C31.2329 0.82352 29.9658 1.5058 29.6734 2.38301Z" fill="white"/>
<path d="M1.50503 17.1006C1.11516 17.393 0.822754 18.7576 0.822754 20.0246C0.822754 21.7791 1.50503 22.4614 3.7468 22.9487C7.06073 23.5335 6.86579 23.2411 9.10756 36.3993C11.1544 48.8753 10.5696 48.5829 32.5 48.5829C54.6253 48.5829 53.943 48.9727 55.9898 35.912C57.8417 23.9234 58.0367 23.436 60.4734 23.0462C63.0076 22.6563 64.6645 20.1221 63.8848 17.9778C62.9101 15.5411 56.7696 15.931 54.0405 18.6601C52.286 20.4145 51.5063 22.8512 50.6291 29.1867C48.5822 43.3196 50.824 41.7601 32.5 41.7601H16.5152L15.5405 36.5943C15.0531 33.8651 14.2734 29.1867 13.8835 26.2626C13.1038 19.7322 10.2772 16.4183 5.40377 16.4183C3.64934 16.4183 1.79744 16.7107 1.50503 17.1006Z" fill="white"/>
<path d="M28.3088 21.2918C26.5544 22.364 24.0202 23.2412 22.7531 23.2412C20.3164 23.2412 16.4177 26.2627 16.4177 28.1146C16.4177 29.7715 28.6987 29.2842 30.0632 27.6272C30.7455 26.8475 31.8177 26.1652 32.4999 26.1652C33.1822 26.1652 34.2544 26.8475 34.9366 27.6272C36.3012 29.2842 48.5822 29.7715 48.5822 28.1146C48.5822 26.2627 44.6835 23.2412 42.2468 23.2412C40.9797 23.2412 38.4455 22.364 36.6911 21.2918C34.9366 20.2196 33.0848 19.3424 32.4999 19.3424C32.0126 19.3424 30.0632 20.2196 28.3088 21.2918Z" fill="white"/>
<path d="M13.5911 54.0411C11.1544 57.0627 11 62.0007 11 64.0007C11.9408 64.0007 28.5127 64.0007 33 64.0007H54.4304V61.3513C54.4304 59.8892 53.4557 57.1601 52.1886 55.3082L49.9468 51.9943L33 52.0007H15.5L13.5911 54.0411ZM35.3266 56.9652C36.0088 58.8171 34.3519 61.2538 32.5 61.2538C30.6481 61.2538 28.9911 58.8171 29.6734 56.9652C30.4531 54.9184 34.5468 54.9184 35.3266 56.9652Z" fill="white"/>
</svg>
